PathFileType	4	(X/Y/Z)	C:/Users/opensim2020/Desktop/walking_exp_matlab/subject02_walking05_straight_03.trc																																																																																																																												
DataRate	CameraRate	NumFrames	NumMarkers	Units	OrigDataRate	OrigDataStartFrame	OrigNumFrames																																																																																																																								
100	100	6	42	mm	100	2189	224																																																																																																																								
Frame#	Time	LFHD			RFHD			LBHD			RBHD			C7			T10			CLAV			STRN			RBAK			LSHO			LUPA			LELB			LFRM			LWRA			LWRB			LFIN			RSHO			RUPA			RELB			RFRM			RWRA			RWRB			RFIN			LASI			RASI			LPSI			RPSI			LTHI			LKNE			LTIB			LANK			LHEE			LTOE			RTHI			RKNE			RTIB			RANK			RHEE			RTOE			*39			*40			*41		
		X1	Y1	Z1	X2	Y2	Z2	X3	Y3	Z3	X4	Y4	Z4	X5	Y5	Z5	X6	Y6	Z6	X7	Y7	Z7	X8	Y8	Z8	X9	Y9	Z9	X10	Y10	Z10	X11	Y11	Z11	X12	Y12	Z12	X13	Y13	Z13	X14	Y14	Z14	X15	Y15	Z15	X16	Y16	Z16	X17	Y17	Z17	X18	Y18	Z18	X19	Y19	Z19	X20	Y20	Z20	X21	Y21	Z21	X22	Y22	Z22	X23	Y23	Z23	X24	Y24	Z24	X25	Y25	Z25	X26	Y26	Z26	X27	Y27	Z27	X28	Y28	Z28	X29	Y29	Z29	X30	Y30	Z30	X31	Y31	Z31	X32	Y32	Z32	X33	Y33	Z33	X34	Y34	Z34	X35	Y35	Z35	X36	Y36	Z36	X37	Y37	Z37	X38	Y38	Z38	X39	Y39	Z39	X40	Y40	Z40	X41	Y41	Z41	X42	Y42	Z42
																																																																																																																															
113	1.12	-11.54868	1745.83154	-1024.06311	-32.8811	1719.16284	-883.2226	-134.40677	1664.01038	-1057.04053	-167.37083	1635.55444	-920.06866	-194.53531	1520.23181	-983.85077	-241.55701	1244.12085	-972.29279	-54.25323	1455.14429	-1002.47083	2.34726	1284.93518	-1000.4519	-244.14449	1343.50964	-917.75214	-131.36755	1499.8468	-1167.54321	-138.39168	1300.46179	-1252.69312	-130.87709	1159.45117	-1268.31287	-98.8577	1030.59705	-1285.51038	-17.87218	918.23602	-1258.27417	-65.18004	911.94324	-1289.13843	-34.55121	852.44617	-1293.27673	-106.63672	1483.56104	-801.89929	-136.09273	1295.37793	-715.96814	-125.06102	1150.71521	-693.48511	-97.37228	1035.1864	-668.60339	-46.39594	908.63995	-679.02643	-95.30669	906.03882	-649.8316	-58.09937	843.93872	-642.14478	-32.00097	978.95294	-1126.21692	7.89253	981.83545	-874.55786	-225.51071	1024.7074	-1015.7804	-213.42912	1031.77295	-901.29395	-82.2739	664.10699	-1182.4386	-92.82389	481.52509	-1168.61914	-245.33572	382.03265	-1143.19617	-386.50192	214.99651	-1102.01929	-412.31805	210.65114	-1039.59351	-322.33371	79.85574	-1149.47302	-18.60045	676.65369	-799.10675	-1.32967	468.34564	-847.7616	-32.59202	281.07544	-841.01038	-52.49897	90.58513	-881.396	-91.23859	37.49523	-936.58545	100.0184	38.86006	-877.77716	-130.28409	1800.20276	-948.03156	2845.11792	1033.82031	-3360.38135	NaN	NaN	NaN
114	1.13	-1.25594	1747.42468	-1023.52551	-22.90826	1720.68396	-882.69281	-124.09632	1665.79382	-1056.68616	-156.60776	1636.82214	-919.47467	-184.37886	1521.83289	-983.31116	-231.87094	1246.02698	-971.00952	-44.17475	1456.55151	-1002.34741	11.86837	1286.18884	-1000.28546	-234.22794	1345.68982	-916.56952	-121.9117	1501.47668	-1167.21924	-131.09541	1301.88623	-1251.98877	-124.99683	1161.06848	-1267.82178	-95.00847	1031.64465	-1285.19775	-15.40586	918.11548	-1258.74011	-63.22569	912.69513	-1289.34668	-33.61053	852.42529	-1293.56116	-95.81245	1485.5929	-801.65967	-124.17668	1297.25269	-714.85901	-112.08726	1152.76538	-692.15338	-83.11287	1037.45691	-667.17212	-31.32082	911.64795	-677.53107	-80.45209	908.4469	-648.20734	-42.44084	847.13623	-640.25134	-23.52905	981.64954	-1126.32996	17.22439	983.03955	-873.60675	-216.68106	1026.44995	-1013.96271	-204.11032	1033.32434	-899.88538	-66.89957	666.74005	-1182.28931	-72.96575	483.97119	-1168.21179	-223.50784	382.36795	-1142.00122	-361.47577	212.38029	-1101.4281	-388.06357	207.36935	-1039.22766	-293.17023	79.90598	-1148.94592	-13.08763	676.65497	-798.68774	0.62497	467.93835	-847.23431	-32.06076	281.16687	-840.99988	-52.51561	90.62915	-881.67468	-91.28195	37.37776	-936.7019	99.99842	38.85325	-877.71637	-120.10297	1801.75793	-947.58826	2845.22925	1033.91052	-3360.19629	NaN	NaN	NaN
115	1.14	8.92878	1748.91956	-1023.18237	-12.76213	1722.10107	-882.39911	-113.8186	1667.25818	-1056.46582	-146.53194	1638.22119	-919.20917	-174.16518	1523.61316	-982.70093	-222.26968	1247.86926	-969.64496	-34.10773	1457.83215	-1002.25073	21.39083	1287.32117	-1000.10626	-224.27478	1347.70386	-915.38177	-112.5583	1502.81592	-1166.64783	-123.80048	1303.38452	-1251.77856	-119.24769	1162.50952	-1267.32507	-91.15543	1032.83679	-1284.64063	-13.39002	918.13477	-1258.75049	-61.32544	913.30078	-1289.50464	-32.68261	852.55469	-1293.82593	-84.92093	1487.47559	-801.39496	-112.2757	1299.45435	-713.69556	-99.21835	1154.97302	-690.80438	-69.3157	1039.85486	-666.005	-16.47768	914.72076	-676.33105	-65.62601	910.84454	-646.83807	-26.67631	850.34558	-638.60419	-14.89392	984.14587	-1126.04468	25.93221	984.30652	-872.87451	-206.86591	1027.89868	-1012.43506	-194.81636	1034.72168	-898.65332	-51.90519	669.39606	-1182.16223	-53.42941	486.46466	-1167.83057	-201.71593	381.99951	-1141.30945	-336.09805	208.92331	-1101.15625	-362.94464	202.8786	-1039.15955	-262.89252	79.11283	-1148.3457	-8.25889	676.5528	-798.53796	3.12335	467.95117	-847.01642	-31.91478	281.35687	-841.25507	-52.51274	90.75932	-881.95227	-91.32381	37.41416	-936.86853	100.01098	38.78326	-877.63965	-109.92809	1803.13416	-947.31116	NaN	NaN	NaN	NaN	NaN	NaN
116	1.15	19.08983	1750.33264	-1022.97229	-3.02447	1723.62451	-882.18958	-103.57121	1668.54895	-1056.3446	-136.3295	1639.50671	-919.20508	-164.02789	1525.14795	-982.22583	-212.73718	1249.63123	-968.25568	-24.12891	1458.99609	-1002.1214	30.92352	1288.34314	-999.87329	-214.40598	1349.70837	-914.25903	-102.97975	1503.82507	-1166.12537	-116.43545	1304.4519	-1250.55383	-113.58987	1163.77856	-1266.88293	-87.55833	1033.89514	-1284.63037	-11.20598	918.03424	-1259.22009	-59.28977	913.92047	-1289.68164	-31.50835	852.79297	-1294.34717	-74.13737	1489.52771	-801.25305	-100.3108	1301.5354	-712.73639	-86.24381	1157.17773	-689.56726	-55.04427	1042.40991	-664.79431	-2.28081	917.54486	-675.61279	-50.74431	913.29956	-645.67651	-10.91511	853.59729	-637.16968	-5.83014	986.64783	-1125.47754	34.65984	985.37061	-871.86084	-198.51617	1029.62012	-1011.21167	-185.74767	1036.03113	-897.65027	-37.28763	672.06134	-1181.97937	-34.23726	489.01004	-1167.32007	-179.85201	380.86102	-1141.17334	-309.68631	204.11778	-1101.14539	-337.61954	197.51375	-1039.4032	-231.49124	77.54314	-1147.81873	-4.30422	676.5368	-798.35205	5.65168	467.73322	-846.94427	-31.29068	281.52017	-841.09375	-52.52992	90.85847	-882.23828	-91.25349	37.56997	-936.987	100.029	38.77742	-877.58398	-99.9439	1804.31775	-947.27618	2845.88574	1033.92151	-3356.87036	NaN	NaN	NaN
117	1.16	29.23758	1751.59375	-1022.8913	7.63274	1724.7644	-881.88391	-93.2979	1669.6438	-1056.25354	-126.43446	1640.47522	-919.35986	-153.86504	1526.59509	-981.8089	-203.19772	1251.23584	-966.88751	-14.1438	1460.06616	-1002.03937	40.37566	1289.24695	-999.50708	-205.1356	1351.82141	-913.12335	-93.37106	1504.90759	-1165.68359	-109.04914	1305.71509	-1250.44006	-108.03332	1165.19189	-1266.66309	-83.73754	1034.90637	-1285.15808	-8.92579	917.91473	-1259.77551	-57.35548	914.44067	-1289.84021	-30.62019	852.79156	-1294.57813	-63.74255	1491.63599	-801.2049	-88.31376	1303.56897	-711.78113	-73.14576	1159.38086	-688.41077	-41.09848	1044.96948	-663.95374	13.41836	920.70032	-674.28113	-35.31475	915.9621	-644.56598	4.99553	856.50476	-636.05566	3.36041	988.98676	-1124.40515	43.26334	986.30798	-870.75574	-189.43471	1031.13	-1010.50348	-176.79694	1037.18518	-896.86127	-23.03205	674.53253	-1181.40845	-15.41999	491.46375	-1166.7876	-157.991	379.09213	-1141.47253	-282.91025	198.66599	-1101.29199	-310.68179	190.73425	-1039.70911	-199.27559	75.34163	-1147.28564	-0.10922	676.37561	-798.60712	8.06352	467.49478	-846.70538	-30.67727	281.68356	-841.14099	-52.29247	90.79062	-882.6626	-91.257	37.63847	-937.12549	100.05613	38.73148	-877.57288	-89.80411	1805.55725	-947.19238	NaN	NaN	NaN	NaN	NaN	NaN
118	1.17	39.22447	1752.62036	-1022.84821	17.50294	1726.02234	-881.98883	-83.11063	1670.49561	-1056.35083	-116.27789	1641.94055	-919.37378	-143.7664	1527.93616	-981.45557	-193.66772	1252.77124	-965.55078	-4.21908	1461.04028	-1001.97717	49.82926	1290.08191	-999.14905	-195.31538	1353.62122	-911.98157	-83.99633	1505.8667	-1165.49463	-101.6376	1306.78931	-1250.17322	-102.60811	1166.35803	-1266.51086	-80.03314	1035.7655	-1285.23096	-6.8015	917.79358	-1260.31116	-55.4189	914.90387	-1290.17529	-29.29316	852.94202	-1295.00073	-53.30886	1493.50525	-801.17908	-76.38291	1305.47937	-711.05518	-60.19125	1161.29968	-687.47504	-27.22223	1047.1731	-663.21198	27.67909	923.07001	-674.60107	-19.924	918.31549	-643.51831	21.07839	859.60846	-635.10791	12.93349	991.33899	-1123.29395	51.84354	987.05927	-869.61871	-179.6136	1032.44507	-1010.21149	-167.86513	1038.14136	-896.33929	-9.00372	677.24573	-1181.34192	3.00962	493.88831	-1166.25598	-136.11783	376.78113	-1142.05688	-255.2388	192.20731	-1101.71594	-283.33044	183.23399	-1040.36108	-166.19157	72.73	-1147.06567	4.01574	676.20001	-798.69427	10.7022	467.30646	-846.6123	-29.329	281.76071	-840.83948	-52.1821	90.91142	-882.76605	-91.30416	37.68386	-937.27045	100.07803	38.69003	-877.51929	-79.81642	1806.64856	-947.36646	2845.14722	1033.78906	-3360.37256	NaN	NaN	NaN
